<svg width="800" height="600" xmlns="http://www.w3.org/2000/svg">
 <g>
  <title>Layer 1</title>
  <path d="m34,249c1,1 1,2 1,6c0,1 0.16131,6.24402 2,11c2.10262,5.43866 4.79393,10.08743 7,15c0.91602,2.03983 3.76951,3.39099 6,7c1.66251,2.69 2.55819,4.51929 6,7c1.81399,1.30746 5.86194,2.47546 12,4c5.9034,1.46625 12.95332,2.49902 21,3c3.99227,0.24854 12.05994,0.97748 20,0c8.18443,-1.00754 21.26401,-4.51062 29,-9c3.11848,-1.80972 11.11406,-5.77957 19,-10c7.10829,-3.80423 14.94185,-8.08865 21,-12c7.92563,-5.11707 14.23274,-8.73325 20,-14c5.22144,-4.7683 13,-13 18,-21c5,-8 9.56239,-16.84825 12,-27c2.61038,-10.87134 3.50893,-22.05107 5,-34c0.7532,-6.03595 1,-16 1,-26c0,-9 0.63904,-15.14223 -1,-21c-1.45107,-5.18598 -3.79488,-9.22021 -7,-12c-3.77727,-3.27601 -6.88731,-5.37669 -13,-7c-4.92821,-1.30875 -9.98453,-3.08074 -15,-4c-5.98309,-1.0966 -12,-1 -18,-2c-6,-1 -12,-1 -18,-1c-6,0 -12,0 -18,0c-7,0 -12.11809,-0.6246 -19,1c-6.15536,1.45309 -11.70251,3.5635 -17,6c-5.74594,2.64276 -11.57111,5.67947 -16,8c-5.60216,2.93526 -10.40401,5.41156 -15,9c-4.45876,3.48129 -6.72399,7.22273 -10,11c-3.70638,4.2735 -6.84797,8.0797 -9,12c-2.80591,5.11145 -6.16796,8.92033 -8,13c-2.20607,4.91257 -3.49294,8.23401 -6,13c-1.67856,3.19099 -3.97252,7.64749 -5,12c-0.91901,3.89299 -0.67963,7.02582 -1,9c-0.50654,3.12144 -1,5 -1,7c0,2 0,3 0,4c0,0 0,0 0,1c0,0 0,0 0,1c0,1 0,2 0,2c0,1 0,2 1,3c0,0 0,0 0,1c0,1 0,2 0,4c0,1 0,4 0,6c0,3 0,5 0,7c0,1 0,3 0,4c0,0 0,0 0,1c0,0 0,0 0,0c0,1 0,1 0,1c-1,0 -1,0 -1,0c0,0 -1,0 -1,1c0,0 0,0 0,0c0,1 -1,1 -1,1c0,0 0,1 0,1c0,0 0,0 0,0c0,1 0,1 0,1c0,0 0,0 0,1c0,0 0,0 0,1c0,0 0,1 0,1c0,1 0,1 0,1c0,1 0,1 0,1c0,0 0,1 0,1c0,0 0,0 0,0c0,1 0,1 0,1c0,0 0,1 0,1l0,0l0,0l0,0" id="svg_1" stroke-width="2" stroke="#000" fill="#CCCCCC"/>
  <path d="m285,291c0,0 0,-2 0,-4c0,-3 0,-7 0,-16c0,-5 0,-9 0,-13c0,-3 0,-8 0,-9c0,-2 0,-5 0,-10c0,-2 0,-4 0,-7c0,-3 -0.49756,-3.9258 -1,-9c-0.29562,-2.9854 -1,-6 -1,-9c0,-2 -1,-5 -2,-8c-1,-3 -0.61066,-6.15927 -2,-9c-1.58411,-3.23892 -3,-6 -4,-8c-1,-2 -1.61066,-4.15927 -3,-7c-1.58411,-3.23892 -2.78986,-6.07843 -4,-9c-0.85571,-2.06586 -2.61066,-5.15927 -4,-8c-1.58411,-3.23892 -2.95517,-3.54915 -4,-7c-0.57956,-1.91418 -0.61731,-4.07613 -1,-5c-0.5412,-1.30656 -1,-3 -1,-3c0,-1 0.1731,-1.85274 1,-3c1.30746,-1.814 3.70547,-4.34619 6,-6c3.62799,-2.6149 7.83127,-5.22054 13,-9c5.82092,-4.25637 11.88284,-9.18156 18,-13c11.78488,-7.35638 18.77173,-12.3853 27,-17c3.90057,-2.18758 13.07129,-4.81633 21,-8c7.06732,-2.83779 16,-5 23,-6c7,-1 14,-1 22,-1c7,0 18.01352,-0.43496 25,0c8.04669,0.50097 14.77173,4.3853 23,9c7.80115,4.37516 17.22272,8.72399 21,12c6.41025,5.55957 13,11 19,17c6,6 13.76141,15.14183 18,22c5.68665,9.2012 14.08557,27.96394 17,35c6.18243,14.92574 12.52118,29.82495 18,47c4.42505,13.87152 5.87256,20.03259 9,32c2.88281,11.03128 5.49158,20.76184 7,35c1.05353,9.94434 0,18 0,29c0,10 -2.41071,19.85471 -4,25c-2.72095,8.8089 -5.10437,18.5145 -10,26c-4.2749,6.53644 -9,13 -14,18c-5,5 -10.04294,8.92578 -17,13c-5.03162,2.94666 -11,5 -17,7c-6,2 -10.80942,3.70508 -17,5c-10.81137,2.26151 -14.02011,1.43289 -22,2c-7.05328,0.50125 -14,1 -21,1c-12,0 -17.01761,0.49622 -24,0c-7.05328,-0.50125 -14.1181,-1.3754 -21,-3c-6.15536,-1.45309 -12.15686,-3.57971 -18,-6c-6.19757,-2.56711 -12.22885,-4.72961 -17,-9c-4.21509,-3.77267 -9.29361,-7.7265 -13,-12c-3.276,-3.77728 -7,-7 -10,-11c-3,-4 -6.19028,-6.88153 -8,-10c-2.24469,-3.86798 -3.78986,-7.07843 -5,-10c-0.85571,-2.06586 -3,-5 -4,-7c-1,-2 -0.69254,-3.186 -2,-5c-0.8269,-1.14728 -1.48627,-1.82376 -2,-4c-0.4595,-1.9465 -0.51944,-4.03873 -1,-7c-0.50653,-3.12143 -1.83981,-6.01291 -2,-7c-0.50653,-3.12143 -1.23462,-5.15225 -2,-7c-0.5412,-1.30655 -1,-3 -2,-4c-1,-1 -1.4588,-1.69345 -2,-3c-0.38269,-0.92389 -0.29291,-1.29291 -1,-2c-0.70709,-0.70709 -1,-1 -1,-1c-1,-1 -1,-1 -1,-1c0,0 0,-1 0,-1c0,-1 -1,-2 -1,-2c0,-1 0.38269,-2.07611 0,-3c-0.5412,-1.30655 -1,-2 -1,-2c0,-1 -1,-1 -1,-1c0,-1 0,-1 0,-1c0,0 0,-1 0,-1c0,0 0,0 0,-1c0,0 0,0 0,-1c0,-1 0,-3 0,-4c0,-1 0,-3 0,-4c0,-1 0,-2 0,-2c0,-1 0,-1 0,-1c0,0 -1,0 -1,0c0,0 0,0 0,0c0,0 0,1 -1,1c0,0 0,0 0,0c0,1 -1,0 -1,1c0,1 1,0 1,0c0,0 1,0 1,0c0,0 0,0 0,0l1,0l0,0" id="svg_2" stroke-width="2" stroke="#000" fill="#CCCCCC"/>
  <path d="m632,143c0,0 -0.49756,1.9258 -1,7c-0.29559,2.9854 -1,7 -2,13c-1,6 -1,13 -1,21c0,8 0,12 0,19c0,8 0,20 0,22c0,8 0,14 0,22c0,6 0,12 0,18c0,5 0,11 0,17c0,6 0.35443,11.01257 0,16c-0.50128,7.05328 -2,14 -3,20c-1,6 -3,13 -4,19c-1,6 -2,12 -3,17c-1,5 -1,10 -1,15c0,5 0,10 0,15c0,4 -0.91901,6.10699 0,10c0.51373,2.17624 1.96857,5.41208 4,9c1.39355,2.4613 4.05664,3.91754 7,6c4.08173,2.88785 11.09113,6.79568 18,10c4.05701,1.88165 9,4 15,6c3,1 11.03748,2.38907 16,3c4.09222,0.50378 8,1 13,1c6,0 10.88733,-0.37668 17,-2c4.92822,-1.30875 11.21918,-2.5329 18,-6c5.19165,-2.65454 10,-6 15,-9c5,-3 8.8515,-7.11581 12,-11c6.69379,-8.2579 11.19574,-12.89172 15,-20c2.11023,-3.94296 6.38055,-10.76303 10,-17c3.367,-5.802 5.82294,-11.65488 8,-18c1.65485,-4.82303 2,-10 3,-16c1,-6 1.49951,-11.96597 2,-23c0.18127,-3.99588 0.57739,-12.02386 0,-19c-0.50171,-6.06204 -1,-9 -2,-13c-1,-4 -0.53375,-7.09662 -2,-13c-0.76227,-3.06903 -2,-8 -3,-12c-1,-4 -2.75238,-9.0883 -5,-15c-2.70648,-7.11862 -5.57971,-13.15688 -8,-19c-2.56714,-6.19757 -5.57971,-11.15688 -8,-17c-1.71143,-4.13171 -4.36169,-9.3054 -7,-14c-2.44965,-4.35883 -6.37134,-9.74675 -9,-14c-3.52673,-5.70634 -6.56348,-10.7025 -9,-16c-2.64276,-5.74594 -4.16797,-9.92033 -6,-14c-2.20605,-4.91257 -2,-7 -3,-10c-1,-3 -2,-6 -3,-9c-1,-3 -0.31073,-6.08025 -1,-9c-0.51373,-2.17625 -1.49347,-3.87856 -2,-7c-0.48053,-2.96127 -1.1731,-4.85273 -2,-6c-1.30743,-1.814 -1.41888,-3.41886 -3,-5c-1.58112,-1.58114 -3.07843,-1.78985 -6,-3c-2.06586,-0.85571 -4.03876,-0.51945 -7,-1c-3.12146,-0.50654 -6,-1 -9,-1c-4,0 -7.94366,0.18835 -11,1c-4.92822,1.30875 -8,3 -12,5c-4,2 -8.22272,3.72399 -12,7c-3.20514,2.77979 -6.46448,6.46446 -10,10c-3.53552,3.53554 -7,6 -8,7c-3,3 -5.19031,4.88152 -7,8c-1.12231,1.93399 -3.1731,3.85274 -4,5c-1.30743,1.814 -1.29291,2.29289 -2,3c-0.70709,0.70711 0,2 0,2c0,0 0,1 0,1c0,0 0,0 0,0c0,0 1,0 1,0c0,0 0,0 1,0c0,0 0,0 0,0c1,0 1,1 1,1c0,0 1,0 1,0c0,0 0,0 1,1c0,0 0,0 0,0c0,1 0,1 0,1c0,0 0,1 0,1c-1,0 -1,0 -1,0c0,1 0,1 0,1c0,0 -1,0 -1,0l0,0l0,0" id="svg_3" stroke-width="2" stroke="#000" fill="#CCCCCC"/>
 </g>
</svg>
